<svg width="60" height="60" viewBox="0 0 60 60" fill="none" xmlns="http://www.w3.org/2000/svg">
<path d="M29.9997 56.6664C33.5022 56.6707 36.9711 55.9829 40.207 54.6425C43.443 53.3021 46.3821 51.3355 48.8557 48.8557C51.3355 46.3821 53.3021 43.443 54.6425 40.207C55.9829 36.9711 56.6707 33.5022 56.6664 29.9997C56.6707 26.4971 55.9829 23.0283 54.6425 19.7923C53.3021 16.5564 51.3355 13.6173 48.8557 11.1437C46.3821 8.66391 43.443 6.69732 40.207 5.35691C36.9711 4.01651 33.5022 3.32871 29.9997 3.33303C26.4971 3.32871 23.0283 4.01651 19.7923 5.35691C16.5564 6.69732 13.6173 8.66391 11.1437 11.1437C8.66391 13.6173 6.69732 16.5564 5.35691 19.7923C4.01651 23.0283 3.32871 26.4971 3.33303 29.9997C3.32871 33.5022 4.01651 36.9711 5.35691 40.207C6.69732 43.443 8.66391 46.3821 11.1437 48.8557C13.6173 51.3355 16.5564 53.3021 19.7923 54.6425C23.0283 55.9829 26.4971 56.6707 29.9997 56.6664Z" fill="white" stroke="white" stroke-width="5.33333" stroke-linejoin="round"/>
<path d="M19.333 30L27.333 38L43.333 22" stroke="black" stroke-width="5.33333" stroke-linecap="round" stroke-linejoin="round"/>
</svg>
